<?xml version="1.0" encoding="UTF-8"?>
<!DOCTYPE svg PUBLIC "-//W3C//DTD SVG 1.1//EN" "http://www.w3.org/Graphics/SVG/1.1/DTD/svg11.dtd">
<!-- Creator: CorelDRAW X7 -->
<svg xmlns="http://www.w3.org/2000/svg" xml:space="preserve" width="77.2349mm" height="9.5135mm" version="1.1" style="shape-rendering:geometricPrecision; text-rendering:geometricPrecision; image-rendering:optimizeQuality; fill-rule:evenodd; clip-rule:evenodd"
viewBox="0 0 4061 500"
 xmlns:xlink="http://www.w3.org/1999/xlink">
 <defs>
  <style type="text/css">
   <![CDATA[
    .fil0 {fill:#6E7F99}
   ]]>
  </style>
 </defs>
 <g id="Layer_x0020_1">
  <metadata id="CorelCorpID_0Corel-Layer"/>
  <path class="fil0" d="M1642 169c28,14 227,290 248,329l92 1c27,-50 78,-116 119,-170 28,-37 93,-146 126,-156 7,97 -19,236 10,323l85 3 -5 -498 -86 -1c-25,47 -271,386 -290,398 -18,-12 -6,-1 -25,-23l-265 -373 -103 4 0 489 92 3 2 -329z"/>
  <path class="fil0" d="M463 302l-3 110c-3,2 -6,5 -9,6l-359 13c-15,-50 -13,-103 -3,-154 65,-2 129,-1 193,-1 71,0 161,-13 181,26zm-371 -226c89,-2 304,-15 372,11l-2 104c-105,28 -252,21 -373,15l3 -130zm347 413c171,22 156,-201 75,-248 100,-115 34,-218 -14,-218 -90,-33 -390,-20 -500,-15l6 477 433 4z"/>
  <path class="fil0" d="M3475 116c94,47 192,136 288,204 103,72 219,180 298,178l-2 -498 -81 5 -2 355c-40,-11 -107,-69 -143,-98 -45,-36 -82,-58 -132,-98 -126,-100 -196,-174 -302,-159l1 492 74 -4 1 -228 0 -149z"/>
  <path class="fil0" d="M2491 499c63,-106 212,-308 255,-396l259 395 101 0c-16,-62 -278,-438 -317,-497l-72 1c-35,41 -308,435 -321,497l95 0z"/>
  <polygon class="fil0" points="1222,76 1471,74 1467,1 854,5 860,76 1119,81 1121,497 1218,497 "/>
  <polygon class="fil0" points="685,500 758,497 765,6 680,6 "/>
  <polygon class="fil0" points="3199,490 3271,487 3273,11 3199,10 "/>
 </g>
</svg>
