<?xml version="1.0" encoding="UTF-8"?>
<!DOCTYPE svg PUBLIC "-//W3C//DTD SVG 1.1//EN" "http://www.w3.org/Graphics/SVG/1.1/DTD/svg11.dtd">
<!-- Creator: CorelDRAW X7 -->
<svg xmlns="http://www.w3.org/2000/svg" xml:space="preserve" width="54.8644mm" height="8.6244mm" version="1.1" style="shape-rendering:geometricPrecision; text-rendering:geometricPrecision; image-rendering:optimizeQuality; fill-rule:evenodd; clip-rule:evenodd"
viewBox="0 0 5187 815"
 xmlns:xlink="http://www.w3.org/1999/xlink">
 <defs>
  <style type="text/css">
   <![CDATA[
    .fil0 {fill:#6E7F99}
   ]]>
  </style>
 </defs>
 <g id="Layer_x0020_1">
  <metadata id="CorelCorpID_0Corel-Layer"/>
  <path class="fil0" d="M506 649l-222 0 0 -173 210 0c69,0 70,106 51,144 -6,12 -25,29 -39,29zm-43 -321l-179 0 0 -173 185 0c78,0 78,173 -6,173zm-463 -309l0 123 105 0 0 661 432 0c194,0 291,-299 100,-408 -24,-13 -10,3 -26,-18 137,-32 157,-376 -111,-376l-481 0c-15,0 -19,4 -19,18z"/>
  <path class="fil0" d="M3698 803l166 0 0 -531 19 31c57,117 48,105 123,235 17,30 142,238 148,265l198 0 0 -802 -167 0 0 530c-7,-8 -3,-2 -10,-14 -3,-5 -7,-12 -8,-16l-50 -105c-20,-43 -49,-91 -73,-130 -16,-27 -143,-239 -149,-265l-197 0 0 802z"/>
  <path class="fil0" d="M1340 359l-192 0 0 -204c215,0 259,-24 259,123 0,45 -24,81 -67,81zm-377 -340l0 765c0,15 4,19 19,19l148 0c14,0 18,-4 18,-19l0 -271c159,0 103,-22 183,138l70 152 198 0c-3,-30 -56,-124 -72,-156 -18,-37 -69,-126 -76,-159 25,-13 36,-14 57,-35 54,-53 85,-105 85,-193 0,-147 -95,-259 -241,-259l-370 0c-15,0 -19,4 -19,18z"/>
  <path class="fil0" d="M1790 692l0 111 179 0c0,-126 -5,-100 36,-229 16,-47 26,-89 42,-138l83 -275 18 0c2,23 14,52 21,78 8,28 16,52 25,80 25,79 109,326 109,397 -1,105 -31,87 166,87 30,0 19,-41 19,-117 0,-28 -91,-314 -102,-350 -16,-58 -34,-115 -52,-170l-38 -128c-6,-20 -2,-37 -24,-37l-266 0c-20,0 -19,14 -24,31l-170 565c-9,33 -22,56 -22,95z"/>
  <path class="fil0" d="M4593 241c0,203 171,221 310,240 85,12 103,25 103,100 0,78 -133,105 -236,51 -62,-31 -54,-43 -85,-64l-111 118c43,64 158,129 266,129 102,0 176,0 260,-66 104,-83 152,-335 -74,-410 -136,-45 -254,-12 -254,-110 0,-47 50,-68 99,-68l259 0 0 -160 -253 0c-155,0 -284,87 -284,240z"/>
  <path class="fil0" d="M2630 19c0,159 -3,95 39,244 18,62 127,405 127,435l0 105 179 0c0,-186 10,-110 -45,-294 -17,-59 -31,-109 -49,-167 -18,-54 -34,-106 -50,-160 -59,-201 80,-181 -183,-181 -14,0 -18,4 -18,18z"/>
  <path class="fil0" d="M3124 19c0,128 -6,106 39,245 16,49 28,93 43,142 11,38 84,261 84,292l0 105 179 0c0,-191 8,-109 -39,-275 -18,-63 -127,-403 -127,-435l0 -92 -161 0c-14,0 -18,4 -18,18z"/>
 </g>
</svg>
