<?xml version="1.0" encoding="UTF-8"?>
<!DOCTYPE svg PUBLIC "-//W3C//DTD SVG 1.1//EN" "http://www.w3.org/Graphics/SVG/1.1/DTD/svg11.dtd">
<!-- Creator: CorelDRAW X7 -->
<svg xmlns="http://www.w3.org/2000/svg" xml:space="preserve" width="60.8348mm" height="17.974mm" version="1.1" style="shape-rendering:geometricPrecision; text-rendering:geometricPrecision; image-rendering:optimizeQuality; fill-rule:evenodd; clip-rule:evenodd"
viewBox="0 0 1287 380"
 xmlns:xlink="http://www.w3.org/1999/xlink">
 <defs>
  <style type="text/css">
   <![CDATA[
    .fil0 {fill:#6E7F99}
   ]]>
  </style>
 </defs>
 <g id="Layer_x0020_1">
  <metadata id="CorelCorpID_0Corel-Layer"/>
  <path class="fil0" d="M103 159c4,-14 19,-37 29,-41 0,13 0,25 4,37 5,20 12,21 15,26 -18,1 -40,-13 -48,-22zm1107 -85l0 17c7,0 10,2 18,2l0 166c0,5 -12,5 -17,5l0 18 76 0 0 -18c-20,0 -16,-4 -16,-9l0 -183c-14,-3 8,-6 -29,-2l-32 4zm-639 73c2,5 7,11 9,16 9,-2 12,-14 38,-17 15,-1 29,8 29,29 0,28 -24,47 -41,63 -9,8 -28,22 -38,27 1,5 4,17 9,17l123 0c5,0 5,-11 7,-23 1,-7 3,-18 3,-26 -3,-2 -13,-4 -18,-4l-10 22c-22,0 -54,6 -69,6 5,-3 25,-14 44,-31 19,-17 50,-47 33,-82 -2,-5 -7,-11 -11,-14 -35,-26 -91,-9 -108,17zm-96 -10c-4,1 -7,2 -10,3 -11,2 -10,-1 -10,19l20 0 0 100c0,4 -3,3 -8,4 -5,0 -6,1 -12,1l0 18 90 0 0 -18c-7,0 -22,-1 -27,-3l0 -102 31 0 0 -22 -31 0c0,-20 -4,-42 15,-42 18,1 22,7 29,8l0 -37c-17,-8 -53,0 -70,18 -2,3 -5,7 -7,10 -9,14 -10,25 -10,43zm627 78c0,-15 1,-31 5,-44 10,-30 36,-21 41,-3 6,23 8,60 0,83 -7,19 -32,23 -41,-4 -2,-8 -5,-21 -5,-32zm-46 -9c0,25 3,40 16,57 19,23 59,27 86,16 9,-4 14,-7 20,-14 21,-20 21,-37 21,-64 0,-11 -2,-22 -6,-29 -12,-26 -34,-43 -66,-39 -21,2 -35,5 -51,21 -11,11 -20,29 -20,52zm-118 6c0,-12 1,-28 4,-38 9,-35 47,-32 47,23 0,19 3,75 -29,68 -19,-4 -22,-36 -22,-53zm-46 -4c0,24 5,39 15,53 23,31 81,32 110,2 27,-27 29,-98 -15,-122 -41,-22 -110,-2 -110,67zm-95 58c-6,0 -18,1 -18,-6l0 -92c0,-7 28,-21 41,4 11,23 9,94 -23,94zm-22 -115l0 -13c-11,-7 -8,-5 -27,-3 -33,5 -29,-1 -29,22 0,4 3,3 7,5 4,1 6,2 10,2l0 161c-5,1 -11,2 -17,4 0,6 -2,16 4,16l78 0 0 -16c-6,-2 -18,-4 -23,-4l0 -42 24 2c20,0 38,-12 50,-25 27,-29 29,-99 -9,-121 -22,-12 -46,-8 -65,9 -1,2 0,2 -3,3zm-515 100c-15,-1 -14,13 -6,15 10,2 14,-6 6,-15zm-76 -94c45,6 105,64 108,120 -29,19 -51,39 -74,2 -2,-3 -5,-8 -7,-13l-4 -12c0,0 0,0 0,-1l-2 -3c-1,29 10,38 15,51 -8,0 -16,-1 -23,-1 -8,0 -11,4 -17,8 -12,6 -29,9 -43,5 4,-4 5,-3 9,-9 3,-5 3,-11 3,-17 -21,-12 -34,-22 -45,-46 -8,-17 -12,-59 -2,-76 7,4 20,22 49,28 13,3 23,1 30,-7 10,-10 6,-17 3,-29zm-6 -97c0,13 -1,22 3,34 3,8 6,14 11,20l5 5c-15,8 -44,-7 -60,-7 4,-20 27,-47 41,-52zm-178 128c0,58 24,109 67,147 4,4 9,8 13,10 65,46 152,47 217,2 47,-32 82,-90 82,-149 0,-35 -3,-60 -18,-89 -7,-14 -16,-31 -27,-42 -16,-17 -15,-18 -36,-33 -64,-47 -154,-44 -218,1 -14,10 -13,10 -25,22 -8,8 -14,14 -21,25 -20,29 -34,66 -34,106z"/>
 </g>
</svg>
