<?xml version="1.0" encoding="UTF-8"?>
<!DOCTYPE svg PUBLIC "-//W3C//DTD SVG 1.1//EN" "http://www.w3.org/Graphics/SVG/1.1/DTD/svg11.dtd">
<!-- Creator: CorelDRAW X7 -->
<svg xmlns="http://www.w3.org/2000/svg" xml:space="preserve" width="28.9438mm" height="28.9438mm" version="1.1" style="shape-rendering:geometricPrecision; text-rendering:geometricPrecision; image-rendering:optimizeQuality; fill-rule:evenodd; clip-rule:evenodd"
viewBox="0 0 187 187"
 xmlns:xlink="http://www.w3.org/1999/xlink">
 <defs>
  <style type="text/css">
   <![CDATA[
    .fil0 {fill:#6E7F99}
   ]]>
  </style>
 </defs>
 <g id="Layer_x0020_1">
  <metadata id="CorelCorpID_0Corel-Layer"/>
  <g id="_1573886789952">
   <g>
    <g>
     <path class="fil0" d="M186 55c0,0 0,0 0,0 -1,-6 -3,-11 -6,-16 0,0 0,-1 0,-1 -2,-4 -5,-9 -8,-12 0,-1 0,-1 0,-1 0,0 0,0 0,0 -3,-4 -7,-7 -10,-10 0,0 0,0 -1,0 0,-1 0,-1 0,-1 -4,-3 -8,-5 -13,-8 0,0 0,0 0,0 -5,-2 -11,-4 -16,-5 0,0 0,0 -1,0 -3,-1 -7,-1 -11,-1 -3,0 -6,0 -9,1 0,0 0,0 0,0 -29,4 -52,25 -57,53 -7,1 -14,4 -21,8 -1,1 -2,2 -1,4 1,1 3,1 4,0 5,-3 11,-5 17,-6 0,2 0,5 0,7 0,4 0,8 1,12 0,0 0,0 0,0 1,6 2,11 5,16 0,0 0,0 0,1 2,4 5,8 8,12 0,1 0,1 0,1 0,0 0,0 0,0 3,4 7,7 11,10 0,0 0,0 0,0 0,0 0,1 0,1 4,3 8,5 13,8 0,0 0,0 0,0 5,2 11,4 16,5 0,0 0,0 0,0 4,1 9,1 13,1 2,0 5,0 7,0 -6,27 -31,47 -60,47 -34,0 -62,-27 -62,-61 0,-17 7,-33 20,-45 1,-1 1,-3 0,-4 -1,-1 -3,-1 -4,0 -7,6 -12,13 -15,22 -4,8 -6,17 -6,27 0,37 30,67 67,67 33,0 60,-23 66,-54 28,-6 49,-29 53,-57 0,0 0,0 0,0 1,-3 1,-6 1,-9 0,-4 -1,-8 -1,-12zm-16 -24c1,3 3,5 5,8l-49 49c-2,-3 -3,-6 -5,-8l49 -49zm-4 -4l-49 48c-2,-2 -4,-4 -6,-6l49 -49c2,2 4,4 6,7zm-11 -10l-48 49c-3,-2 -5,-4 -8,-5l48 -49c3,1 6,3 8,5zm-23 -10c3,0 7,1 10,3l-48 48c-4,-1 -7,-2 -10,-3l48 -48zm-20 -1c3,0 5,-1 8,-1 2,0 3,1 5,1l-47 47c-4,0 -7,0 -11,0 -1,0 -1,0 -2,0l47 -47zm-10 2l-41 42c5,-20 21,-36 41,-42zm-44 65c0,-2 0,-4 0,-6 0,-3 0,-5 1,-8l0 0c3,-1 6,-1 8,-1 2,0 4,0 6,0l-15 15zm1 6l20 -20c4,1 7,2 10,3l-27 27c-1,-3 -2,-6 -3,-10zm11 24c-2,-3 -4,-5 -5,-8l30 -30c3,1 5,3 8,5l-33 33zm3 4l34 -34c2,2 5,4 7,6l-35 35c-2,-2 -4,-5 -6,-7zm11 10l33 -33c2,2 3,5 5,8l-30 30c-3,-2 -6,-3 -8,-5zm23 10c-3,0 -7,-1 -10,-3l27 -27c2,3 3,7 3,10l-20 20zm21 0l-1 1c-3,0 -5,1 -7,1 -2,0 -4,0 -6,-1l14 -14c1,2 1,4 1,6 0,2 -1,4 -1,7zm4 -25c-1,-3 -2,-6 -3,-9l48 -49c1,4 2,7 3,10l-48 48zm4 24l43 -42c-6,20 -22,36 -43,42zm45 -52l-47 47c0,-1 0,-1 0,-1 0,-4 0,-8 -1,-11l48 -48c0,2 0,4 0,6 0,2 0,5 0,7z"/>
    </g>
   </g>
   <g>
   </g>
   <g>
   </g>
   <g>
   </g>
   <g>
   </g>
   <g>
   </g>
   <g>
   </g>
   <g>
   </g>
   <g>
   </g>
   <g>
   </g>
   <g>
   </g>
   <g>
   </g>
   <g>
   </g>
   <g>
   </g>
   <g>
   </g>
   <g>
   </g>
  </g>
 </g>
</svg>
