<?xml version="1.0" encoding="UTF-8"?>
<!DOCTYPE svg PUBLIC "-//W3C//DTD SVG 1.1//EN" "http://www.w3.org/Graphics/SVG/1.1/DTD/svg11.dtd">
<!-- Creator: CorelDRAW X7 -->
<svg xmlns="http://www.w3.org/2000/svg" xml:space="preserve" width="36.1515mm" height="23.1855mm" version="1.1" style="shape-rendering:geometricPrecision; text-rendering:geometricPrecision; image-rendering:optimizeQuality; fill-rule:evenodd; clip-rule:evenodd"
viewBox="0 0 650 417"
 xmlns:xlink="http://www.w3.org/1999/xlink">
 <defs>
  <style type="text/css">
   <![CDATA[
    .fil0 {fill:#6E7F99}
   ]]>
  </style>
 </defs>
 <g id="Layer_x0020_1">
  <metadata id="CorelCorpID_0Corel-Layer"/>
  <path class="fil0" d="M643 0l-594 0c-3,0 -7,3 -7,7l0 78 -35 0c-4,0 -7,3 -7,7l0 53c0,4 3,7 7,7l35 0 0 71 -35 0c-4,0 -7,3 -7,7l0 53c0,4 3,7 7,7l35 0 0 56c0,4 4,7 7,7l78 0 0 57c0,4 3,7 7,7l85 0c4,0 7,-3 7,-7l0 -57 28 0 0 57c0,4 4,7 7,7l255 0c4,0 7,-3 7,-7l0 -57 120 0c4,0 7,-3 7,-7l0 -339c0,-4 -3,-7 -7,-7zm-586 78l28 0 0 81 -28 0 0 -81zm-43 60l0 -39 28 0 0 39 -28 0zm43 78l28 0 0 81 -28 0 0 -81zm-43 60l0 -39 28 0 0 39 -28 0zm127 77l29 0 0 50 -29 0 0 -50zm71 50l-28 0 0 -50 28 0 0 50zm57 -50l28 0 0 50 -28 0 0 -50zm127 22l0 -22 28 0 0 50 -71 0 0 -50 29 0 0 22 14 0zm-57 28l-28 0 0 -50 28 0 0 50zm127 -28l15 0 0 -22 28 0 0 50 -71 0 0 -50 28 0 0 22zm170 -36l-579 0 0 -28 35 0c4,0 7,-3 7,-7l0 -96c0,-3 -3,-7 -7,-7l-35 0 0 -28 35 0c4,0 7,-3 7,-7l0 -95c0,-4 -3,-7 -7,-7l-35 0 0 -50 579 0 0 325zm-226 -28c74,0 134,-60 134,-134 0,-74 -60,-135 -134,-135 -74,0 -134,61 -134,135 0,74 60,134 134,134zm-48 -161c-12,-12 -19,-28 -19,-46l0 -27 1 -1c19,-12 39,-18 61,-19l9 -1 -9 10c-15,14 -23,35 -23,56l0 4c0,2 0,5 0,8l0 2 -1 1c-5,4 -10,8 -13,13l-2 4 -3 -3c-1,0 -1,0 -1,-1zm96 53c12,12 19,29 19,46l0 27 -2 1c-18,12 -39,19 -60,20l-9 0 9 -9c15,-15 23,-36 23,-57l0 -3c0,-3 0,-6 0,-8l-1 -2 2 -2c5,-3 9,-8 13,-13l2 -4 3 3c0,0 1,1 1,1zm-83 -26c0,-20 15,-36 35,-36 19,0 35,16 35,36 0,19 -16,35 -35,35 -20,0 -35,-16 -35,-35zm60 -47c1,-1 1,-1 1,-1 12,-12 29,-19 46,-19l27 0 1 1c12,18 19,39 20,61l0 9 -9 -9c-15,-15 -35,-24 -56,-24l-4 0c-3,0 -6,1 -8,1l-2 0 -1 -2c-4,-5 -9,-9 -14,-12l-4 -2 3 -3zm47 -35c-21,0 -41,9 -56,24 -2,2 -5,5 -7,7l-1 2 -2 0c-2,0 -4,-1 -6,-1 -3,0 -7,1 -10,1l-4 1 0 -7c0,-17 7,-34 19,-46l17 -17 2 0c22,4 42,15 58,30l6 6 -16 0zm-112 111c4,5 8,9 14,13l3 2 -3 3c0,0 0,0 0,1 -13,12 -29,19 -47,19l-27 0 -1 -2c-12,-18 -18,-39 -19,-61l0 -8 9 9c15,14 35,23 56,23l4 0c2,0 5,0 8,0l2 -1 1 2zm-33 52c21,0 42,-9 57,-23 2,-3 4,-5 6,-8l2 -2 2 1c2,0 4,0 6,0 3,0 6,0 10,-1l4 -1 0 7c0,18 -7,34 -19,47l-17 17 -2 -1c-22,-4 -42,-15 -58,-30l-7 -6 16 0zm122 -81c0,-4 0,-7 -1,-10l-1 -4 8 0c17,0 34,7 46,19l17 17 0 2c-5,22 -16,42 -31,58l-6 6 0 -16c0,-21 -8,-41 -23,-56 -3,-3 -5,-5 -8,-7l-2 -1 1 -2c0,-2 0,-4 0,-6zm-130 -89l0 16c0,21 8,42 23,57 2,2 5,4 8,6l1 1 0 2c0,3 -1,5 -1,7 0,3 1,6 1,10l1 4 -7 0c-17,0 -34,-7 -46,-19l-17 -17 0 -2c5,-22 15,-42 31,-58l6 -7zm-195 32l43 0c4,0 7,-3 7,-7l0 -64c0,-3 -3,-7 -7,-7l-43 0c-4,0 -7,4 -7,7l0 64c0,4 3,7 7,7zm7 -63l29 0 0 49 -29 0 0 -49zm-7 169l43 0c4,0 7,-3 7,-7l0 -64c0,-3 -3,-7 -7,-7l-43 0c-4,0 -7,4 -7,7l0 64c0,4 3,7 7,7zm7 -63l29 0 0 49 -29 0 0 -49zm453 -106l14 0 0 -15 -14 0 0 15zm0 254l14 0 0 -14 -14 0 0 14zm-382 -254l14 0 0 -15 -14 0 0 15zm0 254l14 0 0 -14 -14 0 0 14z"/>
 </g>
</svg>
