<?xml version="1.0" encoding="UTF-8"?>
<!DOCTYPE svg PUBLIC "-//W3C//DTD SVG 1.1//EN" "http://www.w3.org/Graphics/SVG/1.1/DTD/svg11.dtd">
<!-- Creator: CorelDRAW X7 -->
<svg xmlns="http://www.w3.org/2000/svg" xml:space="preserve" width="43.3334mm" height="11.5996mm" version="1.1" style="shape-rendering:geometricPrecision; text-rendering:geometricPrecision; image-rendering:optimizeQuality; fill-rule:evenodd; clip-rule:evenodd"
viewBox="0 0 455 122"
 xmlns:xlink="http://www.w3.org/1999/xlink">
 <defs>
  <style type="text/css">
   <![CDATA[
    .fil1 {fill:#02DABA;fill-rule:nonzero}
    .fil0 {fill:#283249;fill-rule:nonzero}
   ]]>
  </style>
 </defs>
 <g id="Layer_x0020_1">
  <metadata id="CorelCorpID_0Corel-Layer"/>
  <path class="fil0" d="M60 13c-7,-7 -16,-9 -25,-9 -16,0 -32,8 -32,26 0,32 41,20 41,40 0,8 -8,12 -15,12 -7,0 -13,-4 -17,-9l-12 11c7,8 18,12 29,12 17,0 32,-9 32,-28 0,-31 -42,-21 -42,-39 0,-8 7,-11 15,-11 6,0 12,2 15,7l11 -12z"/>
  <path id="1" class="fil0" d="M76 122l14 0 0 -36 1 0c3,4 9,9 20,9 17,0 29,-14 29,-31 0,-18 -11,-31 -30,-31 -8,0 -16,3 -20,10l0 0 0 -9 -14 0 0 88zm49 -58c0,9 -7,18 -18,18 -10,0 -17,-9 -17,-18 0,-9 7,-18 17,-18 11,0 18,9 18,18z"/>
  <path id="2" class="fil0" d="M211 69l0 -4c0,-21 -11,-32 -28,-32 -18,0 -32,12 -32,31 0,19 14,31 32,31 9,0 18,-3 25,-12l-11 -8c-3,5 -8,8 -16,8 -8,0 -15,-5 -16,-14l46 0zm-46 -11c2,-9 7,-14 16,-14 9,0 15,5 15,14l-31 0z"/>
  <path id="3" class="fil0" d="M282 69l0 -4c0,-21 -11,-32 -28,-32 -18,0 -32,12 -32,31 0,19 14,31 32,31 9,0 18,-3 25,-12l-11 -8c-3,5 -8,8 -16,8 -8,0 -14,-5 -15,-14l45 0zm-45 -11c1,-9 6,-14 15,-14 9,0 15,5 15,14l-30 0z"/>
  <polygon id="4" class="fil0" points="296,94 311,94 311,63 311,63 334,94 354,94 327,61 352,34 333,34 311,59 311,0 296,0 "/>
  <path id="5" class="fil0" d="M359 64c0,19 15,31 32,31 18,0 33,-12 33,-31 0,-19 -15,-31 -33,-31 -17,0 -32,12 -32,31zm15 0c0,-9 7,-18 17,-18 11,0 18,9 18,18 0,9 -7,18 -18,18 -10,0 -17,-9 -17,-18z"/>
  <polygon id="6" class="fil1" points="455,94 440,94 440,77 455,77 "/>
 </g>
</svg>
