<?xml version="1.0" encoding="UTF-8"?>
<!DOCTYPE svg PUBLIC "-//W3C//DTD SVG 1.1//EN" "http://www.w3.org/Graphics/SVG/1.1/DTD/svg11.dtd">
<!-- Creator: CorelDRAW X7 -->
<svg xmlns="http://www.w3.org/2000/svg" xml:space="preserve" width="43.3334mm" height="16.2732mm" version="1.1" style="shape-rendering:geometricPrecision; text-rendering:geometricPrecision; image-rendering:optimizeQuality; fill-rule:evenodd; clip-rule:evenodd"
viewBox="0 0 455 171"
 xmlns:xlink="http://www.w3.org/1999/xlink">
 <defs>
  <style type="text/css">
   <![CDATA[
    .fil1 {fill:#02DABA;fill-rule:nonzero}
    .fil0 {fill:#283249;fill-rule:nonzero}
    .fil2 {fill:#6E7F99;fill-rule:nonzero}
   ]]>
  </style>
 </defs>
 <g id="Layer_x0020_1">
  <metadata id="CorelCorpID_0Corel-Layer"/>
  <path class="fil0" d="M60 13c-7,-7 -16,-9 -25,-9 -16,0 -32,8 -32,26 0,32 41,20 41,40 0,8 -8,12 -15,12 -7,0 -13,-4 -17,-9l-12 11c7,8 18,12 29,12 17,0 32,-9 32,-28 0,-31 -42,-21 -42,-39 0,-8 7,-11 15,-11 6,0 12,2 15,7l11 -12z"/>
  <path id="1" class="fil0" d="M76 122l14 0 0 -36 1 0c3,4 9,9 20,9 17,0 29,-14 29,-31 0,-18 -11,-31 -30,-31 -8,0 -16,3 -20,10l0 0 0 -9 -14 0 0 88zm49 -58c0,9 -7,18 -18,18 -10,0 -17,-9 -17,-18 0,-9 7,-18 17,-18 11,0 18,9 18,18z"/>
  <path id="2" class="fil0" d="M211 69l0 -4c0,-21 -11,-32 -28,-32 -18,0 -32,12 -32,31 0,19 14,31 32,31 9,0 18,-3 25,-12l-11 -8c-3,5 -8,8 -16,8 -8,0 -15,-5 -16,-14l46 0zm-46 -11c2,-9 7,-14 16,-14 9,0 15,5 15,14l-31 0z"/>
  <path id="3" class="fil0" d="M282 69l0 -4c0,-21 -11,-32 -28,-32 -18,0 -32,12 -32,31 0,19 14,31 32,31 9,0 18,-3 25,-12l-11 -8c-3,5 -8,8 -16,8 -8,0 -14,-5 -15,-14l45 0zm-45 -11c1,-9 6,-14 15,-14 9,0 15,5 15,14l-30 0z"/>
  <polygon id="4" class="fil0" points="296,94 311,94 311,63 311,63 334,94 354,94 327,61 352,34 333,34 311,59 311,0 296,0 "/>
  <path id="5" class="fil0" d="M359 64c0,19 15,31 32,31 18,0 33,-12 33,-31 0,-19 -15,-31 -33,-31 -17,0 -32,12 -32,31zm15 0c0,-9 7,-18 17,-18 11,0 18,9 18,18 0,9 -7,18 -18,18 -10,0 -17,-9 -17,-18z"/>
  <polygon id="6" class="fil1" points="455,94 440,94 440,77 455,77 "/>
  <path class="fil2" d="M137 122c-3,-4 -8,-6 -13,-6 -12,0 -20,8 -20,20 0,10 7,20 20,20 8,0 13,-5 14,-6l-4 -4c-2,4 -6,5 -10,5 -9,0 -15,-6 -15,-15 0,-8 6,-15 15,-15 3,0 7,1 9,4l4 -3z"/>
  <path id="1" class="fil2" d="M143 155l5 0 0 -13c0,-5 3,-8 8,-8 0,0 1,0 2,0l0 -5c0,0 -1,0 -2,0 -3,0 -6,2 -8,4l0 0 0 -4 -5 0 0 26z"/>
  <path id="2" class="fil2" d="M171 156l-1 4c-1,2 -2,4 -5,4 -1,0 -2,0 -3,-1l-1 5c1,0 3,1 4,1 6,0 8,-4 9,-8l13 -32 -6 0 -7 21 0 0 -8 -21 -6 0 11 27z"/>
  <path id="3" class="fil2" d="M191 171l5 0 0 -19 0 0c2,2 5,4 9,4 8,0 13,-6 13,-14 0,-7 -5,-13 -13,-13 -4,0 -7,1 -9,4l0 0 0 -4 -5 0 0 42zm13 -38c6,0 9,4 9,9 0,6 -3,9 -9,9 -5,0 -8,-3 -8,-9 0,-5 3,-9 8,-9z"/>
  <path id="4" class="fil2" d="M238 129l-7 0 0 -7 -5 0 0 7 -5 0 0 5 5 0 0 13c0,4 0,9 8,9 1,0 3,0 4,-1l0 -4c-1,0 -2,0 -3,0 -4,0 -4,-3 -4,-5l0 -12 7 0 0 -5z"/>
  <path id="5" class="fil2" d="M249 142c0,-5 3,-9 8,-9 5,0 9,4 9,9 0,6 -4,9 -9,9 -5,0 -8,-3 -8,-9zm-6 0c0,8 6,14 14,14 8,0 14,-6 14,-14 0,-7 -6,-13 -14,-13 -8,0 -14,6 -14,13z"/>
  <polygon id="6" class="fil2" points="293,155 298,155 298,124 299,124 312,155 315,155 328,124 328,124 328,155 334,155 334,117 326,117 314,146 313,146 301,117 293,117 "/>
  <path id="7" class="fil2" d="M342 155l5 0 0 -26 -5 0 0 26zm-1 -35c0,2 2,4 4,4 2,0 3,-2 3,-4 0,-2 -1,-3 -3,-3 -2,0 -4,1 -4,3z"/>
  <path id="8" class="fil2" d="M355 155l5 0 0 -13c0,-6 3,-9 7,-9 3,0 6,2 6,7l0 15 5 0 0 -16c0,-7 -4,-10 -9,-10 -4,0 -8,2 -9,4l0 0 0 -4 -5 0 0 26z"/>
  <path id="9" class="fil2" d="M386 155l5 0 0 -26 -5 0 0 26zm-1 -35c0,2 1,4 3,4 2,0 4,-2 4,-4 0,-2 -2,-3 -4,-3 -2,0 -3,1 -3,3z"/>
  <path id="10" class="fil2" d="M399 155l4 0 0 -13c0,-6 4,-9 8,-9 3,0 6,2 6,7l0 15 5 0 0 -16c0,-7 -5,-10 -10,-10 -4,0 -7,2 -8,4l-1 0 0 -4 -4 0 0 26z"/>
  <path id="11" class="fil2" d="M455 129l-5 0 0 4 0 0c-2,-3 -6,-4 -9,-4 -8,0 -13,6 -13,13 0,8 5,14 13,14 3,0 7,-2 9,-5l0 0 0 4c0,4 -2,9 -9,9 -4,0 -7,-2 -10,-4l-3 4c4,3 8,5 13,5 8,0 14,-6 14,-14l0 -26zm-13 4c5,0 8,4 8,9 0,6 -3,9 -8,9 -6,0 -9,-3 -9,-9 0,-5 3,-9 9,-9z"/>
 </g>
</svg>
