<?xml version="1.0" encoding="UTF-8"?>
<!DOCTYPE svg PUBLIC "-//W3C//DTD SVG 1.1//EN" "http://www.w3.org/Graphics/SVG/1.1/DTD/svg11.dtd">
<!-- Creator: CorelDRAW X7 -->
<svg xmlns="http://www.w3.org/2000/svg" xml:space="preserve" width="8.742mm" height="6.9207mm" version="1.1" style="shape-rendering:geometricPrecision; text-rendering:geometricPrecision; image-rendering:optimizeQuality; fill-rule:evenodd; clip-rule:evenodd"
viewBox="0 0 30 24"
 xmlns:xlink="http://www.w3.org/1999/xlink"
 enable-background="new 0 0 24 24">
 <defs>
  <style type="text/css">
   <![CDATA[
    .fil0 {fill:#283249}
   ]]>
  </style>
 </defs>
 <g id="Layer_x0020_1">
  <metadata id="CorelCorpID_0Corel-Layer"/>
  <g id="_1573886768960">
   <path class="fil0" d="M27 3l3 -3 0 0 -8 0 -6 15 -7 -15 -9 0 0 0 3 4c0,0 1,0 1,1l0 13c0,0 -1,1 -1,1l-3 4 0 1 9 0 0 -1 -3 -4c-1,0 -1,-1 -1,-1l0 -11 8 17 1 0 7 -17 0 13c0,0 0,1 0,1l-3 2 0 1 12 0 0 -1 -3 -2c0,0 0,-1 0,-1l0 -17c0,0 0,0 0,0l0 0z"/>
  </g>
 </g>
</svg>
