<?xml version="1.0" encoding="UTF-8"?>
<!DOCTYPE svg PUBLIC "-//W3C//DTD SVG 1.1//EN" "http://www.w3.org/Graphics/SVG/1.1/DTD/svg11.dtd">
<!-- Creator: CorelDRAW X7 -->
<svg xmlns="http://www.w3.org/2000/svg" xml:space="preserve" width="5.8896mm" height="4.6626mm" version="1.1" style="shape-rendering:geometricPrecision; text-rendering:geometricPrecision; image-rendering:optimizeQuality; fill-rule:evenodd; clip-rule:evenodd"
viewBox="0 0 27 21"
 xmlns:xlink="http://www.w3.org/1999/xlink"
 enable-background="new 0 0 24 24">
 <defs>
  <style type="text/css">
   <![CDATA[
    .fil0 {fill:#6E7F99}
   ]]>
  </style>
 </defs>
 <g id="Layer_x0020_1">
  <metadata id="CorelCorpID_0Corel-Layer"/>
  <g id="_1572015976016">
   <path class="fil0" d="M25 2l2 -2 0 0 -8 0 -5 13 -6 -13 -8 0 0 0 3 3c0,1 0,1 0,1l0 12c0,1 0,1 0,1l-3 4 0 0 8 0 0 0 -3 -4c0,0 0,0 0,-1l0 -10 7 15 1 0 6 -15 0 12c0,0 0,0 -1,1l-2 2 0 0 11 0 0 0 -2 -2c-1,0 -1,-1 -1,-1l0 -15c0,0 0,0 1,-1l0 0z"/>
  </g>
 </g>
</svg>
