<?xml version="1.0" encoding="UTF-8"?>
<!DOCTYPE svg PUBLIC "-//W3C//DTD SVG 1.1//EN" "http://www.w3.org/Graphics/SVG/1.1/DTD/svg11.dtd">
<!-- Creator: CorelDRAW X7 -->
<svg xmlns="http://www.w3.org/2000/svg" xml:space="preserve" width="8.7018mm" height="7.0702mm" version="1.1" style="shape-rendering:geometricPrecision; text-rendering:geometricPrecision; image-rendering:optimizeQuality; fill-rule:evenodd; clip-rule:evenodd"
viewBox="0 0 33 27"
 xmlns:xlink="http://www.w3.org/1999/xlink">
 <defs>
  <style type="text/css">
   <![CDATA[
    .fil0 {fill:#283249}
   ]]>
  </style>
 </defs>
 <g id="Layer_x0020_1">
  <metadata id="CorelCorpID_0Corel-Layer"/>
  <g id="_1573886795040">
   <g>
    <g>
     <path class="fil0" d="M33 3c-1,1 -3,1 -4,1 1,-1 2,-2 3,-3 -1,0 -3,1 -4,1 -2,-1 -3,-2 -5,-2 -4,0 -7,3 -7,7 0,0 0,1 0,1 -5,0 -10,-3 -14,-7 0,1 -1,2 -1,4 0,2 2,4 3,5 -1,0 -2,0 -3,-1 0,0 0,0 0,0 0,4 3,6 6,7 -1,0 -1,0 -2,0 0,0 -1,0 -1,0 1,3 3,5 6,5 -2,2 -5,3 -8,3 -1,0 -1,0 -2,0 3,2 7,3 10,3 13,0 19,-11 19,-19 0,-1 0,-1 0,-1 2,-1 3,-2 4,-4z"/>
    </g>
   </g>
   <g>
   </g>
   <g>
   </g>
   <g>
   </g>
   <g>
   </g>
   <g>
   </g>
   <g>
   </g>
   <g>
   </g>
   <g>
   </g>
   <g>
   </g>
   <g>
   </g>
   <g>
   </g>
   <g>
   </g>
   <g>
   </g>
   <g>
   </g>
   <g>
   </g>
  </g>
 </g>
</svg>
