<?xml version="1.0" encoding="UTF-8"?>
<!DOCTYPE svg PUBLIC "-//W3C//DTD SVG 1.1//EN" "http://www.w3.org/Graphics/SVG/1.1/DTD/svg11.dtd">
<!-- Creator: CorelDRAW X7 -->
<svg xmlns="http://www.w3.org/2000/svg" xml:space="preserve" width="5.8625mm" height="4.7633mm" version="1.1" style="shape-rendering:geometricPrecision; text-rendering:geometricPrecision; image-rendering:optimizeQuality; fill-rule:evenodd; clip-rule:evenodd"
viewBox="0 0 31 25"
 xmlns:xlink="http://www.w3.org/1999/xlink">
 <defs>
  <style type="text/css">
   <![CDATA[
    .fil0 {fill:#6E7F99}
   ]]>
  </style>
 </defs>
 <g id="Layer_x0020_1">
  <metadata id="CorelCorpID_0Corel-Layer"/>
  <g id="_1572075730336">
   <g>
    <g>
     <path class="fil0" d="M31 3c-2,0 -3,1 -4,1 1,-1 2,-2 3,-4 -2,1 -3,2 -4,2 -1,-1 -3,-2 -5,-2 -3,0 -6,3 -6,6 0,1 0,1 0,2 -5,-1 -10,-3 -13,-7 0,1 -1,2 -1,3 0,2 1,4 3,5 -1,0 -2,0 -3,0 0,0 0,0 0,0 0,3 2,5 5,6 0,0 -1,0 -1,0 -1,0 -1,0 -2,0 1,3 4,4 6,4 -2,2 -5,3 -8,3 0,0 -1,0 -1,0 3,2 6,3 10,3 11,0 17,-10 17,-18 0,0 0,-1 0,-1 2,-1 3,-2 4,-3z"/>
    </g>
   </g>
   <g>
   </g>
   <g>
   </g>
   <g>
   </g>
   <g>
   </g>
   <g>
   </g>
   <g>
   </g>
   <g>
   </g>
   <g>
   </g>
   <g>
   </g>
   <g>
   </g>
   <g>
   </g>
   <g>
   </g>
   <g>
   </g>
   <g>
   </g>
   <g>
   </g>
  </g>
 </g>
</svg>
