<?xml version="1.0" encoding="UTF-8"?>
<!DOCTYPE svg PUBLIC "-//W3C//DTD SVG 1.1//EN" "http://www.w3.org/Graphics/SVG/1.1/DTD/svg11.dtd">
<!-- Creator: CorelDRAW X7 -->
<svg xmlns="http://www.w3.org/2000/svg" xml:space="preserve" width="25.419mm" height="25.419mm" version="1.1" style="shape-rendering:geometricPrecision; text-rendering:geometricPrecision; image-rendering:optimizeQuality; fill-rule:evenodd; clip-rule:evenodd"
viewBox="0 0 1669 1669"
 xmlns:xlink="http://www.w3.org/1999/xlink">
 <defs>
  <style type="text/css">
   <![CDATA[
    .fil0 {fill:#6E7F99}
   ]]>
  </style>
 </defs>
 <g id="Layer_x0020_1">
  <metadata id="CorelCorpID_0Corel-Layer"/>
  <g id="_1572230779088">
   <path class="fil0" d="M1502 918l0 -56c15,0 28,-12 28,-28l0 -166c0,-16 -13,-28 -28,-28l-150 0 -6 -21c-12,-48 -31,-94 -56,-136l-11 -19 106 -106c11,-11 11,-29 0,-39l-118 -119c-11,-10 -28,-10 -39,0l-107 107 -18 -11c-43,-25 -89,-44 -136,-57l-21 -5 0 -151c0,-15 -13,-27 -28,-27l-167 0c-15,0 -28,12 -28,27l0 151 -21 5c-47,12 -93,31 -136,57l-18 11 -107 -107c-11,-10 -28,-10 -39,0l-118 118c-5,6 -8,13 -8,20 0,7 3,14 8,20l107 106 -12 19c-25,42 -44,88 -56,136l-6 21 -150 0c-15,0 -28,12 -28,28l0 166c0,16 13,28 28,28l0 56c-46,0 -84,-37 -84,-84l0 -166c0,-47 38,-84 84,-84l108 0c11,-38 27,-75 46,-111l-77 -76c-15,-16 -24,-37 -24,-59 0,-22 9,-43 24,-59l119 -118c32,-32 84,-32 117,0l77 76c35,-19 72,-34 111,-46l0 -108c0,-46 37,-83 83,-83l167 0c46,0 83,37 83,83l0 108c39,12 76,27 111,46l77 -76c33,-32 84,-32 117,0l119 118c15,16 24,37 24,59 0,22 -9,43 -24,59l-77 76c19,36 35,73 46,111l108 0c46,0 83,37 83,84l0 166c0,47 -37,84 -83,84zm0 0z"/>
   <path class="fil0" d="M1224 751l-56 0c0,-184 -149,-334 -334,-334 -184,0 -333,150 -333,334l-56 0c0,-215 174,-389 389,-389 216,0 390,174 390,389zm0 0z"/>
   <path class="fil0" d="M834 974c-92,0 -166,-75 -166,-167 0,-93 74,-167 166,-167 93,0 167,74 167,167 0,92 -74,166 -167,167zm0 -279c-61,0 -111,50 -111,112 0,61 50,111 111,111 62,0 112,-50 112,-111 0,-62 -50,-112 -112,-112zm0 0z"/>
   <path class="fil0" d="M1307 1085c-92,0 -167,-75 -167,-167 0,-92 75,-167 167,-167 93,0 167,75 167,167 0,92 -75,167 -167,167zm0 -278c-61,0 -111,49 -111,111 0,61 50,111 111,111 62,0 112,-50 112,-111 0,-62 -50,-111 -112,-111zm0 0z"/>
   <path class="fil0" d="M362 1085c-93,0 -167,-75 -167,-167 0,-92 74,-167 167,-167 92,0 166,75 166,167 0,92 -74,167 -166,167zm0 -278c-62,0 -112,49 -112,111 0,61 50,111 112,111 61,0 111,-50 111,-111 0,-62 -50,-111 -111,-111zm0 0z"/>
   <path class="fil0" d="M1559 1156c-41,-28 -90,-44 -140,-43l-223 0c-13,0 -27,1 -40,3 -18,-28 -41,-52 -68,-70 -4,-3 -9,-6 -13,-9 -39,-23 -84,-36 -129,-36l-223 0c-85,0 -164,43 -210,115 -13,-2 -27,-3 -40,-3l-223 0c-50,-1 -99,15 -140,43 -69,47 -110,124 -110,207l0 111c0,76 44,145 113,177 26,12 54,18 82,18l278 0 0 -56 -250 0 0 -306 -56 0 0 304c-11,-3 -21,-6 -30,-11 -50,-22 -81,-72 -81,-126l0 -111c0,-64 32,-125 85,-161 32,-22 70,-34 109,-34l223 0c5,0 9,1 14,1 -9,27 -14,55 -14,83l0 278c0,77 62,139 139,139l83 0 0 -445 -55 0 0 389 -28 0c-46,0 -84,-37 -84,-83l0 -278c0,-108 88,-195 195,-195l223 0c36,0 71,10 101,29 3,1 6,3 8,5 26,18 48,42 63,69 15,28 22,60 22,92l0 278c0,46 -37,83 -83,83l-28 0 0 -389 -55 0 0 445 83 0c77,0 139,-62 139,-139l0 -278c0,-28 -5,-56 -14,-83 4,0 9,-1 14,-1l223 0c39,0 77,12 109,34 53,36 85,97 85,161l0 111c0,55 -32,104 -81,127 -10,4 -20,7 -30,10l0 -304 -56 0 0 306 -250 0 0 56 278 0c28,0 56,-6 81,-18 69,-32 114,-101 114,-177l0 -111c0,-83 -41,-160 -110,-207zm0 0z"/>
   <path class="fil0" d="M723 1613l223 0 0 56 -223 0 0 -56zm0 0z"/>
  </g>
 </g>
</svg>
